<?xml version="1.0" standalone="no"?>
<!DOCTYPE svg PUBLIC "-//W3C//DTD SVG 20010904//EN"
 "http://www.w3.org/TR/2001/REC-SVG-20010904/DTD/svg10.dtd">
<svg version="1.0" xmlns="http://www.w3.org/2000/svg"
 width="260.000000pt" height="260.000000pt" viewBox="0 0 260.000000 260.000000"
 preserveAspectRatio="xMidYMid meet">
<metadata>
Created by potrace 1.11, written by Peter Selinger 2001-2013
</metadata>
<g transform="translate(0.000000,260.000000) scale(0.100000,-0.100000)"
fill="#000000" stroke="none">
<path d="M0 1300 l0 -1300 1300 0 1300 0 0 1300 0 1300 -1300 0 -1300 0 0
-1300z m758 253 c-8 -76 -14 -140 -12 -142 4 -4 47 42 81 87 20 25 29 30 39
21 19 -15 4 -40 -68 -115 -32 -33 -58 -65 -58 -70 0 -6 37 -16 83 -22 45 -7
94 -15 108 -18 25 -6 26 -4 33 54 7 65 28 104 45 86 8 -7 8 -27 0 -67 -12 -70
-9 -129 9 -135 28 -9 120 118 142 198 7 27 35 39 42 18 3 -7 1 -57 -4 -112 -5
-54 -7 -100 -5 -102 2 -3 28 7 58 20 84 38 99 40 99 19 0 -13 -19 -27 -64 -46
-35 -16 -71 -36 -79 -45 -10 -12 -17 -65 -25 -177 -12 -178 -31 -255 -70 -292
-35 -32 -53 -26 -79 27 -49 96 -11 290 79 401 24 30 31 49 34 100 4 55 3 61
-8 44 -7 -11 -32 -39 -55 -63 -52 -54 -89 -55 -113 -5 -14 29 -21 33 -80 42
-36 6 -85 12 -109 14 l-44 2 -13 -74 c-14 -79 -28 -106 -44 -81 -6 8 -8 26 -5
40 2 14 7 46 11 73 6 43 5 47 -15 47 -35 0 -36 27 -3 58 27 25 31 36 37 108
16 201 34 279 57 256 8 -8 7 -52 -4 -149z m-158 90 c45 -26 65 -88 37 -112
-18 -14 -37 5 -37 35 0 63 -110 63 -167 0 -60 -65 -26 -104 92 -105 79 -1 125
-44 104 -98 -37 -98 -311 -260 -378 -223 -40 21 -15 50 41 50 49 0 149 45 215
98 55 44 91 98 76 113 -5 5 -48 15 -96 21 -112 15 -143 37 -133 92 19 100 166
177 246 129z m1767 -76 l6 -29 13 31 c19 46 34 38 34 -19 0 -48 -19 -74 -21
-27 0 19 -1 20 -8 4 -9 -25 -25 -23 -33 5 -6 22 -6 21 -7 -4 -2 -44 -21 -32
-21 12 0 22 -4 40 -10 40 -5 0 -10 -18 -10 -40 0 -22 -4 -40 -10 -40 -5 0 -10
18 -10 40 0 22 -4 40 -10 40 -5 0 -10 5 -10 10 0 7 19 10 46 9 41 -3 46 -5 51
-32z m-380 11 c4 -7 31 -78 59 -158 l51 -145 50 155 c47 148 51 155 77 158 16
2 26 0 23 -5 -2 -4 -32 -95 -67 -201 -60 -188 -62 -193 -87 -190 -24 3 -31 18
-93 193 -37 105 -65 193 -63 198 7 12 41 8 50 -5z m-478 -147 l86 -144 3 146
3 147 24 0 25 0 -2 -197 c-3 -195 -3 -196 -25 -198 -19 -1 -37 23 -109 144
-48 80 -92 153 -98 162 -8 12 -10 -27 -8 -147 l4 -164 -26 0 -26 0 0 201 0
200 32 -3 c29 -3 38 -14 117 -147z m419 -39 c34 -103 63 -191 62 -195 0 -5
-12 -7 -26 -5 -22 2 -30 13 -46 56 l-19 52 -69 0 -69 0 -16 -55 c-13 -47 -19
-55 -40 -55 -22 0 -23 3 -15 28 18 58 50 161 80 260 31 102 31 102 63 102 l32
0 63 -188z"/>
<path d="M1110 1068 c-33 -53 -50 -128 -51 -215 -1 -127 20 -143 57 -42 16 44
33 289 20 289 -3 0 -15 -15 -26 -32z"/>
<path d="M1806 1442 c-10 -37 -20 -74 -23 -82 -3 -13 4 -16 42 -14 25 1 49 4
52 7 5 6 -35 137 -46 149 -4 5 -15 -22 -25 -60z"/>
</g>
</svg>
